<svg xmlns="http://www.w3.org/2000/svg" xmlns:xlink="http://www.w3.org/1999/xlink" xmlns:xodm="http://www.corel.com/coreldraw/odm/2003" xml:space="preserve" width="6.18043in" height="2.00937in" style="shape-rendering:geometricPrecision; text-rendering:geometricPrecision; image-rendering:optimizeQuality; fill-rule:evenodd; clip-rule:evenodd" viewBox="0 0 5863.05 1906.18"> <defs>  <style type="text/css">       .fil2 {fill:none}    .fil3 {fill:#848688;fill-rule:nonzero}    .fil0 {fill:#213163;fill-rule:nonzero}    .fil1 {fill:#841910;fill-rule:nonzero}     </style> </defs> <g id="Layer_x0020_1">  <metadata id="CorelCorpID_0Corel-Layer"></metadata>  <g id="_3103614677888">   <path class="fil0" d="M903.02 987.79l94.18 49.68c-30.84,60.87 -66.61,109.74 -107.01,147.14 -40.68,37.41 -86.26,65.8 -136.77,85.17 -50.78,19.39 -108.1,29.21 -171.99,29.21 -141.95,0 -252.78,-46.41 -332.76,-139.49 -79.99,-93.09 -119.84,-198.19 -119.84,-315.58 0,-110.28 33.85,-208.83 101.55,-295.1 85.72,-109.73 200.65,-164.87 344.52,-164.87 148.22,0 266.7,56.51 355.15,168.98 63.06,79.44 95,178.53 96.09,297.27l-782.1 0c1.92,101.55 34.4,184.54 96.64,249.23 62.51,64.7 139.49,97.18 231.22,97.18 44.22,0 87.36,-7.65 129.12,-23.2 41.77,-15.56 77.54,-36.03 106.75,-61.7 29.2,-25.38 61.15,-66.88 95.27,-123.93zm0 -234.22c-15.02,-59.78 -36.86,-107.56 -65.25,-143.04 -28.66,-35.76 -66.33,-64.7 -113.29,-86.54 -46.96,-21.84 -96.09,-32.76 -147.96,-32.76 -85.17,0 -158.6,27.57 -219.75,82.44 -44.77,39.85 -78.62,99.91 -101.55,179.89l647.79 0zm1200.31 -683l0 1206.04 -110.56 0 0 -149.6c-46.69,57.05 -99.36,99.92 -157.79,128.86 -58.42,28.66 -122.29,43.13 -191.63,43.13 -123.12,0 -228.22,-44.77 -315.57,-134.03 -87.09,-89.27 -130.76,-197.91 -130.76,-325.95 0,-125.3 43.95,-232.31 132.12,-321.3 87.91,-88.99 193.82,-133.76 317.48,-133.76 71.53,0 135.94,15.28 193.82,45.58 57.87,30.58 108.65,76.17 152.33,136.77l0 -495.73 110.56 0zm-447.97 421.48c-62.24,0 -119.84,15.29 -172.8,45.86 -52.68,30.85 -94.72,73.71 -125.85,129.4 -31.11,55.41 -46.95,114.1 -46.95,175.79 0,61.43 15.83,120.11 47.22,176.07 31.68,55.97 73.71,99.37 126.94,130.76 52.96,31.12 109.74,46.68 170.61,46.68 61.42,0 119.57,-15.56 174.44,-46.41 54.86,-30.84 97.18,-72.61 126.67,-125.58 29.76,-52.68 44.5,-112.19 44.5,-178.25 0,-100.73 -33.3,-185.08 -99.63,-252.78 -66.34,-67.71 -147.96,-101.56 -245.14,-101.56zm686.83 -85.71l112.74 0 0 406.47c0,99.09 5.46,167.34 16.1,204.74 16.1,53.23 46.41,95.27 91.45,126.38 45.04,30.85 98.81,46.41 161.33,46.41 62.24,0 115.2,-15.28 158.6,-45.31 43.41,-30.02 73.43,-69.61 90.08,-118.75 11.19,-33.58 16.65,-104.82 16.65,-213.47l0 -406.47 114.38 0 0 427.21c0,119.84 -13.92,210.2 -41.76,271.07 -28.12,60.89 -70.16,108.38 -126.39,142.78 -56.24,34.39 -126.94,51.59 -211.57,51.59 -84.9,0 -155.6,-17.2 -212.38,-51.59 -56.78,-34.4 -99.1,-82.44 -127.21,-143.86 -27.84,-61.7 -42.04,-154.24 -42.04,-277.9l0 -419.3z"></path>   <path class="fil1" d="M3352.23 406.34l111.92 0 0 156.14c44.77,-59.78 94.46,-104.56 148.78,-134.03 54.32,-29.48 113.56,-44.49 177.71,-44.49 64.97,0 122.57,16.65 173.07,49.68 50.23,33.03 87.63,77.52 111.37,133.48 24.03,55.96 36.04,143.32 36.04,261.52l0 447.97 -111.1 0 0 -415.21c0,-100.18 -4.37,-167.06 -12.83,-200.64 -13.38,-57.6 -38.21,-100.74 -75.07,-129.94 -36.85,-28.94 -84.9,-43.69 -144.13,-43.69 -67.7,0 -128.31,22.38 -181.81,67.15 -53.51,45.05 -89,100.47 -105.93,166.53 -10.64,43.13 -16.1,122.03 -16.1,236.67l0 319.12 -111.92 0 0 -870.27zm1731.54 581.45l94.18 49.68c-30.84,60.87 -66.61,109.74 -107.01,147.14 -40.68,37.41 -86.26,65.8 -136.77,85.17 -50.78,19.39 -108.1,29.21 -171.98,29.21 -141.95,0 -252.78,-46.41 -332.77,-139.49 -79.99,-93.09 -119.84,-198.19 -119.84,-315.58 0,-110.28 33.85,-208.83 101.55,-295.1 85.72,-109.73 200.65,-164.87 344.52,-164.87 148.22,0 266.7,56.51 355.15,168.98 63.06,79.44 95,178.53 96.09,297.27l-782.1 0c1.92,101.55 34.4,184.54 96.64,249.23 62.51,64.7 139.49,97.18 231.21,97.18 44.22,0 87.36,-7.65 129.12,-23.2 41.77,-15.56 77.54,-36.03 106.75,-61.7 29.2,-25.38 61.15,-66.88 95.27,-123.93zm0 -234.22c-15.02,-59.78 -36.86,-107.56 -65.25,-143.04 -28.66,-35.76 -66.33,-64.7 -113.29,-86.54 -46.95,-21.84 -96.09,-32.76 -147.96,-32.76 -85.17,0 -158.6,27.57 -219.75,82.44 -44.77,39.85 -78.62,99.91 -101.55,179.89l647.79 0zm429.13 -670.17l113.02 0 0 322.94 177.44 0 0 96.09 -177.44 0 0 774.18 -113.02 0 0 -774.18 -152.6 0 0 -96.09 152.6 0 0 -322.94z"></path>  </g>  <polygon class="fil2" points="-0,0 5863.05,0 5863.05,1906.18 -0,1906.18 "></polygon>  <path class="fil3" d="M3495.88 1455.92c0,3.2 -0.17,5.8 -0.52,7.7 -0.35,2 -0.78,3.56 -1.13,4.77 -0.43,1.12 -1.04,1.99 -1.65,2.33 -0.68,0.43 -1.56,0.69 -2.6,0.69 -1.12,0 -2.68,-0.43 -4.41,-1.12 -1.82,-0.78 -3.9,-1.64 -6.5,-2.6 -2.51,-0.86 -5.54,-1.73 -9,-2.51 -3.46,-0.78 -7.45,-1.13 -12.03,-1.13 -6.24,0 -11.6,1.04 -16.02,3.04 -4.32,1.99 -7.88,5.19 -10.65,9.52 -2.68,4.34 -4.59,9.87 -5.8,16.72 -1.21,6.83 -1.73,15.14 -1.73,25.02l0 24.84 50.91 0c1.38,0 2.51,0.27 3.46,0.86 0.96,0.61 1.74,1.65 2.51,3.03 0.78,1.48 1.38,3.29 1.82,5.46 0.43,2.25 0.6,4.93 0.6,8.14 0,6.06 -0.78,10.48 -2.25,13.16 -1.56,2.77 -3.54,4.07 -6.14,4.07l-50.91 0 0 200.19c0,1.3 -0.35,2.51 -1.04,3.38 -0.69,0.96 -1.82,1.73 -3.46,2.43 -1.56,0.68 -3.72,1.21 -6.42,1.56 -2.76,0.35 -6.14,0.52 -10.21,0.52 -3.99,0 -7.45,-0.17 -10.13,-0.52 -2.68,-0.35 -4.85,-0.87 -6.49,-1.56 -1.56,-0.69 -2.69,-1.47 -3.38,-2.43 -0.69,-0.86 -1.04,-2.07 -1.04,-3.38l0 -200.19 -32.21 0c-2.68,0 -4.77,-1.3 -6.06,-4.07 -1.39,-2.68 -2.08,-7.1 -2.08,-13.16 0,-3.21 0.17,-5.89 0.52,-8.14 0.35,-2.17 0.87,-3.99 1.57,-5.46 0.68,-1.38 1.46,-2.42 2.5,-3.03 1.04,-0.6 2.25,-0.86 3.56,-0.86l32.21 0 0 -23.63c0,-15.85 1.47,-29.53 4.42,-40.96 3.03,-11.42 7.53,-20.69 13.59,-27.96 6.14,-7.28 13.77,-12.65 22.94,-16.2 9.27,-3.46 20.09,-5.2 32.65,-5.2 5.88,0 11.69,0.61 17.23,1.65 5.62,1.12 9.86,2.33 12.89,3.54 3.13,1.3 5.11,2.43 6.16,3.47 1.03,1.03 1.82,2.33 2.5,3.89 0.69,1.64 1.13,3.54 1.39,5.89 0.27,2.25 0.43,5.02 0.43,8.22zm237.15 205.47c0,18.62 -2.42,35.76 -7.35,51.34 -4.85,15.68 -12.21,29.18 -21.91,40.53 -9.7,11.34 -21.9,20.18 -36.55,26.49 -14.63,6.32 -31.6,9.53 -50.82,9.53 -18.8,0 -35.15,-2.86 -49.1,-8.4 -13.94,-5.54 -25.62,-13.68 -34.89,-24.34 -9.27,-10.64 -16.19,-23.64 -20.78,-38.87 -4.59,-15.16 -6.84,-32.47 -6.84,-51.7 0,-18.61 2.43,-35.75 7.19,-51.34 4.85,-15.68 12.13,-29.18 21.83,-40.52 9.7,-11.35 21.9,-20.09 36.45,-26.33 14.55,-6.32 31.51,-9.43 50.91,-9.43 18.79,0 35.16,2.77 49.1,8.4 13.94,5.54 25.62,13.68 34.89,24.33 9.35,10.64 16.27,23.63 20.96,38.78 4.67,15.24 6.92,32.38 6.92,51.52zm-44.06 2.76c0,-12.28 -1.22,-23.98 -3.47,-34.97 -2.25,-11 -6.06,-20.61 -11.25,-28.92 -5.28,-8.32 -12.38,-14.81 -21.3,-19.66 -9,-4.85 -20.18,-7.27 -33.51,-7.27 -12.38,0 -22.95,2.25 -31.87,6.66 -8.83,4.33 -16.19,10.57 -21.9,18.62 -5.81,8.06 -10.05,17.58 -12.81,28.58 -2.77,11 -4.16,22.94 -4.16,36.02 0,12.46 1.12,24.25 3.39,35.24 2.25,11 6.06,20.61 11.42,28.75 5.28,8.22 12.46,14.72 21.38,19.57 9,4.85 20.18,7.19 33.51,7.19 12.21,0 22.78,-2.17 31.69,-6.58 9,-4.42 16.36,-10.56 22.08,-18.54 5.8,-7.88 10.04,-17.4 12.73,-28.4 2.68,-10.99 4.07,-23.03 4.07,-36.28zm303.64 113.95c0,1.3 -0.27,2.51 -0.87,3.38 -0.6,0.96 -1.64,1.73 -3.2,2.43 -1.48,0.68 -3.46,1.21 -5.98,1.56 -2.43,0.35 -5.46,0.52 -9,0.52 -3.9,0 -7.01,-0.17 -9.53,-0.52 -2.42,-0.35 -4.32,-0.87 -5.79,-1.56 -1.48,-0.69 -2.43,-1.47 -2.95,-2.43 -0.43,-0.86 -0.69,-2.07 -0.69,-3.38l0 -30.22c-13.08,14.38 -25.89,24.86 -38.61,31.43 -12.64,6.67 -25.54,9.96 -38.53,9.96 -15.24,0 -28.05,-2.6 -38.45,-7.62 -10.39,-5.11 -18.79,-11.95 -25.19,-20.7 -6.5,-8.74 -11.08,-18.87 -13.85,-30.47 -2.78,-11.52 -4.16,-25.64 -4.16,-42.17l0 -138.54c0,-1.39 0.26,-2.51 0.87,-3.47 0.6,-0.86 1.73,-1.73 3.38,-2.5 1.73,-0.78 3.9,-1.22 6.67,-1.48 2.68,-0.26 6.06,-0.43 10.13,-0.43 4.07,0 7.45,0.17 10.13,0.43 2.69,0.25 4.85,0.69 6.49,1.48 1.56,0.78 2.68,1.64 3.38,2.5 0.69,0.96 1.04,2.08 1.04,3.47l0 132.91c0,13.34 0.96,24.07 2.95,32.12 1.9,8.05 4.85,14.89 8.83,20.52 3.99,5.71 9.01,10.05 15.07,13.16 6.14,3.2 13.24,4.77 21.38,4.77 10.48,0 20.87,-3.72 31.25,-11.17 10.49,-7.45 21.48,-18.36 33.17,-32.74l0 -159.57c0,-1.39 0.27,-2.51 0.86,-3.47 0.61,-0.86 1.74,-1.73 3.47,-2.5 1.64,-0.78 3.81,-1.22 6.41,-1.48 2.6,-0.26 6.06,-0.43 10.3,-0.43 4.07,0 7.45,0.17 10.14,0.43 2.68,0.25 4.84,0.69 6.31,1.48 1.57,0.78 2.69,1.64 3.47,2.5 0.78,0.96 1.13,2.08 1.13,3.47l0 228.33zm276.28 0c0,1.3 -0.34,2.51 -1.03,3.38 -0.69,0.96 -1.74,1.73 -3.29,2.43 -1.55,0.68 -3.64,1.21 -6.32,1.56 -2.77,0.35 -6.14,0.52 -10.13,0.52 -4.24,0 -7.71,-0.17 -10.48,-0.52 -2.68,-0.35 -4.76,-0.87 -6.32,-1.56 -1.48,-0.69 -2.6,-1.47 -3.29,-2.43 -0.69,-0.86 -1.04,-2.07 -1.04,-3.38l0 -133.68c0,-13.08 -0.94,-23.55 -3.03,-31.43 -1.99,-7.97 -4.93,-14.81 -8.83,-20.61 -3.9,-5.72 -8.92,-10.14 -15.16,-13.17 -6.14,-3.03 -13.24,-4.59 -21.39,-4.59 -10.48,0 -20.95,3.72 -31.43,11.17 -10.56,7.45 -21.56,18.35 -32.99,32.72l0 159.58c0,1.3 -0.35,2.51 -1.04,3.38 -0.69,0.96 -1.82,1.73 -3.29,2.43 -1.56,0.68 -3.64,1.21 -6.32,1.56 -2.77,0.35 -6.23,0.52 -10.48,0.52 -3.98,0 -7.35,-0.17 -10.13,-0.52 -2.68,-0.35 -4.85,-0.87 -6.41,-1.56 -1.64,-0.69 -2.77,-1.47 -3.29,-2.43 -0.6,-0.86 -0.94,-2.07 -0.94,-3.38l0 -228.33c0,-1.39 0.25,-2.51 0.78,-3.47 0.52,-0.86 1.56,-1.73 3.03,-2.5 1.56,-0.78 3.46,-1.22 5.89,-1.48 2.34,-0.26 5.45,-0.43 9.35,-0.43 3.72,0 6.84,0.17 9.26,0.43 2.43,0.25 4.33,0.69 5.72,1.48 1.29,0.78 2.33,1.64 2.94,2.5 0.52,0.96 0.86,2.08 0.86,3.47l0 30.21c12.81,-14.37 25.62,-24.93 38.45,-31.6 12.73,-6.67 25.62,-10.05 38.61,-10.05 15.24,0 28.06,2.6 38.45,7.79 10.38,5.11 18.87,12.03 25.28,20.61 6.41,8.66 11,18.79 13.77,30.3 2.86,11.6 4.24,25.54 4.24,41.74l0 139.31zm274.22 0c0,1.3 -0.26,2.51 -0.87,3.55 -0.6,0.95 -1.64,1.81 -3.03,2.42 -1.47,0.52 -3.38,1.04 -5.71,1.39 -2.43,0.35 -5.28,0.52 -8.66,0.52 -3.56,0 -6.5,-0.17 -8.84,-0.52 -2.42,-0.35 -4.32,-0.87 -5.89,-1.39 -1.46,-0.61 -2.59,-1.47 -3.28,-2.42 -0.69,-1.04 -1.04,-2.25 -1.04,-3.55l0 -30.22c-11.95,13.08 -24.41,23.2 -37.41,30.48 -12.9,7.27 -27.11,10.91 -42.43,10.91 -16.79,0 -31.09,-3.29 -42.94,-9.79 -11.78,-6.5 -21.39,-15.32 -28.75,-26.41 -7.36,-11.07 -12.73,-24.07 -16.1,-39.04 -3.38,-14.98 -5.11,-30.74 -5.11,-47.28 0,-19.65 2.17,-37.4 6.32,-53.16 4.24,-15.84 10.56,-29.35 18.79,-40.44 8.31,-11.17 18.62,-19.74 30.83,-25.8 12.29,-5.98 26.4,-9 42.51,-9 13.34,0 25.55,2.94 36.63,8.74 11.08,5.89 22.08,14.47 32.9,25.8l0 -132.73c0,-1.12 0.26,-2.25 0.86,-3.38 0.61,-1.12 1.73,-2 3.47,-2.51 1.64,-0.61 3.81,-1.12 6.41,-1.56 2.6,-0.44 5.98,-0.61 10.05,-0.61 4.24,0 7.7,0.17 10.39,0.61 2.68,0.43 4.84,0.95 6.31,1.56 1.57,0.52 2.69,1.39 3.47,2.51 0.78,1.13 1.12,2.25 1.12,3.38l0 337.94zm-42.08 -160.61c-11.34,-14.04 -22.34,-24.68 -32.9,-32.04 -10.56,-7.37 -21.55,-11.09 -33.07,-11.09 -10.66,0 -19.74,2.6 -27.11,7.63 -7.45,5.1 -13.51,11.77 -18.18,20.08 -4.68,8.22 -8.06,17.67 -10.13,28.15 -2.17,10.48 -3.21,21.12 -3.21,31.95 0,11.52 0.86,22.77 2.68,33.77 1.74,10.92 4.85,20.7 9.27,29.27 4.42,8.57 10.21,15.41 17.49,20.52 7.27,5.18 16.45,7.78 27.36,7.78 5.63,0 10.99,-0.78 16.19,-2.34 5.11,-1.47 10.39,-4.07 15.85,-7.62 5.36,-3.56 11.07,-8.14 16.97,-13.77 5.89,-5.71 12.21,-12.65 18.79,-20.96l0 -91.34zm293.78 160.87c0,1.99 -0.69,3.54 -2.08,4.5 -1.3,1.04 -3.2,1.82 -5.54,2.34 -2.42,0.52 -5.88,0.78 -10.38,0.78 -4.42,0 -7.97,-0.26 -10.57,-0.78 -2.6,-0.52 -4.5,-1.3 -5.71,-2.34 -1.21,-0.96 -1.74,-2.51 -1.74,-4.5l0 -22.86c-10.04,10.64 -21.12,18.95 -33.42,24.84 -12.21,5.89 -25.2,8.92 -38.88,8.92 -12.03,0 -22.94,-1.56 -32.64,-4.77 -9.7,-3.11 -18.01,-7.62 -24.86,-13.51 -6.83,-5.97 -12.2,-13.24 -16.01,-21.82 -3.72,-8.66 -5.63,-18.45 -5.63,-29.44 0,-12.9 2.59,-23.98 7.78,-33.51 5.28,-9.43 12.82,-17.31 22.61,-23.54 9.78,-6.32 21.82,-11 36.02,-14.12 14.2,-3.12 30.22,-4.68 47.97,-4.68l31.43 0 0 -17.74c0,-8.84 -0.95,-16.63 -2.77,-23.38 -1.9,-6.76 -4.85,-12.38 -9,-16.8 -4.16,-4.5 -9.53,-7.88 -16.1,-10.21 -6.58,-2.25 -14.73,-3.38 -24.33,-3.38 -10.39,0 -19.58,1.21 -27.8,3.64 -8.23,2.51 -15.41,5.2 -21.55,8.14 -6.24,2.94 -11.35,5.63 -15.5,8.13 -4.16,2.43 -7.19,3.64 -9.26,3.64 -1.3,0 -2.51,-0.35 -3.56,-0.96 -1.04,-0.68 -1.9,-1.73 -2.68,-3.11 -0.69,-1.29 -1.3,-3.03 -1.64,-5.2 -0.35,-2.07 -0.53,-4.42 -0.53,-6.92 0,-4.25 0.35,-7.62 0.96,-10.04 0.6,-2.43 1.99,-4.77 4.32,-7.02 2.25,-2.17 6.15,-4.77 11.78,-7.7 5.54,-2.95 11.95,-5.64 19.22,-8.14 7.28,-2.43 15.24,-4.42 23.9,-6.06 8.57,-1.65 17.31,-2.43 26.15,-2.43 16.37,0 30.3,1.9 41.82,5.63 11.52,3.72 20.78,9.18 27.88,16.37 7.1,7.19 12.3,16.1 15.5,26.75 3.2,10.66 4.85,23.04 4.85,37.24l0 154.04zm-41.65 -104.25l-35.75 0c-11.52,0 -21.48,0.96 -29.96,2.86 -8.4,1.99 -15.42,4.85 -21.05,8.66 -5.54,3.81 -9.7,8.4 -12.29,13.68 -2.6,5.37 -3.9,11.43 -3.9,18.36 0,11.85 3.72,21.29 11.26,28.31 7.53,7.02 18.1,10.56 31.61,10.56 10.99,0 21.12,-2.77 30.56,-8.4 9.35,-5.54 19.23,-14.11 29.53,-25.63l0 -48.4zm234.63 87.19c0,4.93 -0.35,8.84 -0.95,11.69 -0.69,2.86 -1.74,5.03 -3.12,6.32 -1.3,1.39 -3.38,2.69 -6.06,3.82 -2.68,1.21 -5.79,2.15 -9.27,2.94 -3.46,0.78 -7.1,1.39 -10.99,1.9 -3.9,0.53 -7.79,0.79 -11.69,0.79 -11.87,0 -21.99,-1.57 -30.48,-4.68 -8.4,-3.2 -15.33,-7.88 -20.77,-14.2 -5.38,-6.41 -9.35,-14.37 -11.78,-24.15 -2.42,-9.7 -3.64,-21.14 -3.64,-34.38l0 -133.43 -32.03 0c-2.51,0 -4.5,-1.3 -6.07,-4.07 -1.56,-2.68 -2.25,-7.1 -2.25,-13.16 0,-3.21 0.18,-5.89 0.61,-8.14 0.43,-2.17 0.96,-3.99 1.64,-5.46 0.69,-1.38 1.56,-2.42 2.69,-3.03 1.12,-0.6 2.33,-0.86 3.63,-0.86l31.78 0 0 -54.29c0,-1.21 0.26,-2.25 0.87,-3.29 0.6,-1.04 1.64,-1.9 3.28,-2.68 1.57,-0.78 3.72,-1.3 6.5,-1.64 2.68,-0.35 6.06,-0.53 10.13,-0.53 4.24,0 7.7,0.18 10.39,0.53 2.68,0.34 4.85,0.86 6.32,1.64 1.56,0.78 2.6,1.64 3.28,2.68 0.69,1.04 1.04,2.08 1.04,3.29l0 54.29 58.62 0c1.29,0 2.51,0.27 3.54,0.86 0.96,0.61 1.9,1.65 2.6,3.03 0.78,1.48 1.39,3.29 1.65,5.46 0.35,2.25 0.52,4.93 0.52,8.14 0,6.06 -0.69,10.48 -2.25,13.16 -1.56,2.77 -3.54,4.07 -6.06,4.07l-58.62 0 0 127.36c0,15.77 2.33,27.62 6.93,35.68 4.67,7.96 12.98,12.03 25.02,12.03 3.89,0 7.35,-0.43 10.38,-1.13 3.03,-0.78 5.8,-1.64 8.14,-2.43 2.33,-0.86 4.42,-1.64 6.06,-2.42 1.74,-0.78 3.21,-1.12 4.6,-1.12 0.86,0 1.64,0.17 2.42,0.61 0.78,0.43 1.3,1.21 1.73,2.42 0.43,1.21 0.86,2.77 1.13,4.77 0.35,2.07 0.52,4.59 0.52,7.62zm99.56 16.8c0,1.3 -0.35,2.51 -1.04,3.38 -0.69,0.96 -1.82,1.73 -3.29,2.43 -1.56,0.68 -3.64,1.21 -6.32,1.56 -2.77,0.35 -6.23,0.52 -10.48,0.52 -3.98,0 -7.35,-0.17 -10.13,-0.52 -2.69,-0.35 -4.85,-0.87 -6.41,-1.56 -1.64,-0.69 -2.76,-1.47 -3.29,-2.43 -0.6,-0.86 -0.95,-2.07 -0.95,-3.38l0 -228.33c0,-1.22 0.35,-2.25 0.95,-3.29 0.53,-1.04 1.65,-1.9 3.29,-2.51 1.56,-0.69 3.72,-1.21 6.41,-1.56 2.77,-0.35 6.15,-0.52 10.13,-0.52 4.25,0 7.71,0.17 10.48,0.52 2.68,0.35 4.77,0.86 6.32,1.56 1.47,0.61 2.6,1.47 3.29,2.51 0.69,1.04 1.04,2.07 1.04,3.29l0 228.33zm4.75 -305.48c0,9.87 -1.81,16.55 -5.53,20.09 -3.72,3.56 -10.57,5.28 -20.52,5.28 -9.88,0 -16.54,-1.73 -20.18,-5.2 -3.64,-3.46 -5.46,-9.95 -5.46,-19.65 0,-9.79 1.82,-16.45 5.54,-20.01 3.72,-3.54 10.56,-5.37 20.52,-5.37 9.87,0 16.54,1.74 20.18,5.2 3.64,3.46 5.45,10.04 5.45,19.65zm287.2 188.76c0,18.62 -2.42,35.76 -7.35,51.34 -4.85,15.68 -12.21,29.18 -21.91,40.53 -9.7,11.34 -21.9,20.18 -36.55,26.49 -14.63,6.32 -31.6,9.53 -50.82,9.53 -18.8,0 -35.15,-2.86 -49.1,-8.4 -13.94,-5.54 -25.62,-13.68 -34.89,-24.34 -9.27,-10.64 -16.19,-23.64 -20.78,-38.87 -4.59,-15.16 -6.84,-32.47 -6.84,-51.7 0,-18.61 2.43,-35.75 7.19,-51.34 4.85,-15.68 12.13,-29.18 21.83,-40.52 9.7,-11.35 21.9,-20.09 36.45,-26.33 14.55,-6.32 31.51,-9.43 50.91,-9.43 18.79,0 35.16,2.77 49.1,8.4 13.94,5.54 25.62,13.68 34.89,24.33 9.35,10.64 16.27,23.63 20.96,38.78 4.67,15.24 6.92,32.38 6.92,51.52zm-44.06 2.76c0,-12.28 -1.22,-23.98 -3.47,-34.97 -2.25,-11 -6.06,-20.61 -11.25,-28.92 -5.28,-8.32 -12.38,-14.81 -21.3,-19.66 -9,-4.85 -20.18,-7.27 -33.51,-7.27 -12.38,0 -22.95,2.25 -31.87,6.66 -8.83,4.33 -16.19,10.57 -21.9,18.62 -5.81,8.06 -10.05,17.58 -12.81,28.58 -2.77,11 -4.16,22.94 -4.16,36.02 0,12.46 1.12,24.25 3.39,35.24 2.25,11 6.06,20.61 11.42,28.75 5.28,8.22 12.46,14.72 21.38,19.57 9,4.85 20.18,7.19 33.51,7.19 12.2,0 22.78,-2.17 31.69,-6.58 9,-4.42 16.36,-10.56 22.08,-18.54 5.8,-7.88 10.04,-17.4 12.73,-28.4 2.68,-10.99 4.07,-23.03 4.07,-36.28zm304.67 113.95c0,1.3 -0.34,2.51 -1.03,3.38 -0.69,0.96 -1.74,1.73 -3.29,2.43 -1.56,0.68 -3.64,1.21 -6.32,1.56 -2.76,0.35 -6.14,0.52 -10.13,0.52 -4.24,0 -7.71,-0.17 -10.48,-0.52 -2.68,-0.35 -4.77,-0.87 -6.32,-1.56 -1.47,-0.69 -2.6,-1.47 -3.29,-2.43 -0.69,-0.86 -1.04,-2.07 -1.04,-3.38l0 -133.68c0,-13.08 -0.94,-23.55 -3.03,-31.43 -1.99,-7.97 -4.93,-14.81 -8.83,-20.61 -3.9,-5.72 -8.92,-10.14 -15.16,-13.17 -6.14,-3.03 -13.24,-4.59 -21.38,-4.59 -10.48,0 -20.96,3.72 -31.43,11.17 -10.56,7.45 -21.56,18.35 -32.99,32.72l0 159.58c0,1.3 -0.35,2.51 -1.04,3.38 -0.69,0.96 -1.82,1.73 -3.29,2.43 -1.56,0.68 -3.64,1.21 -6.32,1.56 -2.77,0.35 -6.23,0.52 -10.48,0.52 -3.98,0 -7.35,-0.17 -10.13,-0.52 -2.68,-0.35 -4.85,-0.87 -6.41,-1.56 -1.64,-0.69 -2.76,-1.47 -3.29,-2.43 -0.6,-0.86 -0.95,-2.07 -0.95,-3.38l0 -228.33c0,-1.39 0.25,-2.51 0.78,-3.47 0.52,-0.86 1.56,-1.73 3.03,-2.5 1.56,-0.78 3.46,-1.22 5.89,-1.48 2.33,-0.26 5.45,-0.43 9.35,-0.43 3.72,0 6.83,0.17 9.25,0.43 2.43,0.25 4.34,0.69 5.72,1.48 1.3,0.78 2.34,1.64 2.95,2.5 0.52,0.96 0.86,2.08 0.86,3.47l0 30.21c12.81,-14.37 25.62,-24.93 38.45,-31.6 12.73,-6.67 25.62,-10.05 38.61,-10.05 15.24,0 28.05,2.6 38.45,7.79 10.38,5.11 18.87,12.03 25.28,20.61 6.41,8.66 11,18.79 13.77,30.3 2.86,11.6 4.24,25.54 4.24,41.74l0 139.31z"></path> </g></svg>